<svg xmlns="http://www.w3.org/2000/svg" width="128" height="60" viewBox="0 0 128 60">
  <g id="Group_5" data-name="Group 5" transform="translate(-32 -920)">
    <path id="Shape" d="M25.5,60a25.15,25.15,0,0,1-9.926-2.021A25.708,25.708,0,0,1,2,44.3,25.7,25.7,0,0,1,21.25,8.957v-6.1H18.417a1.429,1.429,0,0,1,0-2.858H32.584a1.429,1.429,0,0,1,0,2.858H29.75V8.95a25.367,25.367,0,0,1,12.757,6.215l3.3-3.327a1.378,1.378,0,0,1,1.957,0,1.4,1.4,0,0,1,0,1.973l-3.3,3.327a25.795,25.795,0,0,1-.932,35.331,25.4,25.4,0,0,1-8.105,5.512A25.143,25.143,0,0,1,25.5,60Zm0-48.572A22.858,22.858,0,1,0,48.167,34.285,22.788,22.788,0,0,0,25.5,11.428ZM24.083,2.858V8.645c.139-.008.274-.016.412-.027H24.5l.042,0h.01c.307-.02.624-.042.943-.042s.638.019.947.038h.012l.049,0h.011l.4.024V2.858ZM25.5,40a5.689,5.689,0,0,1-4.847-8.629l-7.5-7.56a1.407,1.407,0,0,1,0-1.974,1.378,1.378,0,0,1,1.957,0l7.5,7.56a5.537,5.537,0,0,1,2.891-.825A5.714,5.714,0,0,1,25.5,40Zm0-8.571a2.857,2.857,0,1,0,2.833,2.857A2.848,2.848,0,0,0,25.5,31.429Z" transform="translate(32 920)"/>
    <path id="Path_3" data-name="Path 3" d="M0,25.764,18.167,44,62,0" transform="translate(94 928)" fill="none" stroke="#17437f" stroke-linecap="round" stroke-miterlimit="10" stroke-width="8"/>
  </g>
</svg>
